<?xml version="1.0" encoding="UTF-8"?>
<svg id="Layer_1" data-name="Layer 1" xmlns="http://www.w3.org/2000/svg" viewBox="0 0 434.03 230.1">
  <defs>
    <style>
      .cls-1 {
        fill: #2b7fe2;
      }

      .cls-2 {
        fill: #ff002c;
      }

      .cls-3 {
        fill: #4e95ff;
      }
    </style>
  </defs>
  <path class="cls-2" d="M52.82,20.65l-13.04,39.12-12.92-39.12C23.31,9.91,13.27,2.65,1.96,2.65H0l27.88,76.55c12.86,0,24.36-7.99,28.84-20.04L77.7,2.72c-11.28,0-21.31,7.22-24.88,17.93Z"/>
  <path class="cls-2" d="M123.02,66.8c-3.19,0-3.9-3.19-3.9-7.68l.12-17.01c0-1.62-.12-3.24-.41-4.83-.85-4.7-3.63-9.13-7.85-11.44-4.62-2.53-9.86-3.9-15.13-3.94-8-.06-24.73,4.07-20.37,15.39,2.19,4.78,8.55,5.88,8.55,5.88-.72-6.09,2.32-9.41,8.36-9.33,4.55.06,8.18,3.84,8.18,8.39v1.65l-22.21,7.21c-7.91,2.6-14.29,6.14-14.29,14.65s7.68,14.41,18.43,14.41,16.3-5.43,19.02-9.45c.68,5.08,4.17,7.49,7.56,8.45,8.1,2.3,16.06-4.18,16.06-12.59v-.23s-1.06.47-2.12.47ZM100.45,62.31c-3.07,3.54-6.85,6.14-10.98,6.14s-6.86-2.48-6.86-5.79c0-3.66,3.55-6.02,9.69-8.15l8.27-2.83-.12,10.63Z"/>
  <path class="cls-2" d="M239.56,66.8c-3.18,0-3.89-3.19-3.89-7.68l.11-17.01c0-1.62-.11-3.24-.4-4.83-.85-4.7-3.63-9.13-7.85-11.44-4.62-2.53-9.87-3.9-15.13-3.94-8-.06-24.73,4.07-20.37,15.39,2.19,4.78,8.55,5.88,8.55,5.88-.72-6.09,2.31-9.41,8.36-9.33,4.55.06,8.18,3.84,8.18,8.39v1.65l-22.21,7.21c-7.92,2.6-14.29,6.14-14.29,14.65s7.67,14.41,18.42,14.41,16.31-5.43,19.02-9.45c.69,5.08,4.18,7.49,7.57,8.45,8.1,2.3,16.06-4.18,16.06-12.59v-.23s-1.06.47-2.13.47ZM217.06,56.86c-.06,5.19-3.42,9.94-8.44,11.25-.85.22-1.72.34-2.61.34-4.13,0-6.85-2.48-6.85-5.79,0-3.66,3.55-6.02,9.69-8.15l8.27-2.83-.06,5.18Z"/>
  <path class="cls-2" d="M170.91,66.19c-1.97.36-4.19.61-6.6.61-12.52,0-17.96-5.67-17.72-17.84.12-9.21,3.66-14.18,9.57-14.18,4.82,0,7.51,3.57,7.51,9.86,0,.95-.06,1.95-.18,3.02,11.1,0,15.99-14.42,6.9-20.8-3.33-2.33-7.88-3.89-14.12-3.89-17.36,0-27.99,9.92-27.99,28.47,0,16.71,9.47,28.56,26.94,28.56,16.12,0,20.76-12.04,20.76-15.13-1.39.48-3.11.96-5.07,1.32Z"/>
  <path class="cls-2" d="M265.41,56.99v-21.14h1.89c3.27,0,6.22-1.32,8.35-3.46,2.14-2.14,3.46-5.1,3.46-8.36h-13.7v-1.3c0-4.04-1.64-7.7-4.29-10.35-2.65-2.65-6.31-4.29-10.36-4.29,0,15.35-.71,15.94-12.17,15.94v3.67c0,2.25.91,4.29,2.39,5.76,1.47,1.48,3.51,2.39,5.77,2.39v26.22c0,8.98,3.89,18.08,17.72,18.08h.36c3.96-.04,7.54-1.69,10.11-4.32,2.58-2.63,4.17-6.24,4.17-10.21,0,0-3.78,1.3-6.49,1.3-6.5,0-7.21-4.26-7.21-9.93Z"/>
  <path class="cls-2" d="M286.21,42.82v36.38c10.37,0,18.78-8.41,18.78-18.78V24.03c-10.37,0-18.78,8.41-18.78,18.79Z"/>
  <path class="cls-2" d="M342.28,22.97c-18.78,0-30.01,10.4-30.01,28.83s10.99,28.35,29.54,28.35,30.01-10.52,30.01-28.83-10.99-28.35-29.54-28.35ZM342.4,67.74c-6.73,0-10.99-5.9-10.99-16.3s3.78-16.06,10.52-16.06,10.75,6.14,10.75,16.18-3.55,16.18-10.28,16.18Z"/>
  <path class="cls-2" d="M415.96,22.97c-4.84,0-8.95,1.44-12.23,3.35-3.28,1.91-5.73,4.3-7.26,6.19.12-4.64-3.6-8.47-8.25-8.47h-9.12v55.16c5.15,0,9.82-2.09,13.2-5.47,3.37-3.38,5.46-8.04,5.46-13.2v-15.46c0-2.43.99-4.63,2.59-6.23,1.56-1.56,3.73-2.54,6.12-2.57,4.9-.05,8.9,4.22,8.9,9.12v15.14c0,10.31,8.35,18.67,18.66,18.67v-38.04c0-12.16-7.43-18.19-18.07-18.19Z"/>
  <path class="cls-2" d="M285.5,10.04c0-5.67,4.13-10.04,10.28-10.04,5.79,0,9.69,4.37,9.69,10.04,0,4.96-3.9,9.45-9.69,9.45-6.14,0-10.28-4.49-10.28-9.45Z"/>
  <path class="cls-1" d="M139.14,167.79c-5.92-5.67-14.61-9.06-25.66-10.03,18.24-2.79,28.53-14.74,28.53-31.05,0-28.31-24.66-35.6-50.62-35.6H27.47v110.61c0,15.67,12.71,28.38,28.38,28.38h38.12c37.32,0,54.26-13.94,54.26-38.61,0-10.08-3.16-18.03-9.09-23.7ZM62.22,116.2h25.31c12.01,0,18.02,6.01,18.02,15.45s-6.01,16.08-18.88,16.08h-24.45v-31.53ZM92.68,205h-17.97c-6.9,0-12.49-5.59-12.49-12.49v-22.68h26.38c15.88,0,22.95,6.43,22.95,17.8,0,10.08-5.57,17.37-18.87,17.37Z"/>
  <path class="cls-1" d="M288.23,91.11c-16.78,0-30.34,13.68-30.19,30.46l.59,65.2-38.73-62.83c-12.31-20.38-34.38-32.83-58.18-32.83h-.26v138.99c16.78,0,30.34-13.68,30.19-30.46l-.59-65.42,38.74,62.99c6.15,10.2,14.75,18.43,24.79,24.1,10.03,5.67,21.51,8.79,33.42,8.79l.43-138.99h-.21Z"/>
  <path class="cls-3" d="M428.22,228.55v.88l.05.08.39.59-.44-1.55Z"/>
  <path class="cls-2" d="M405.92,91.11c-15.52,0-28.1,12.58-28.1,28.11s28.1,47.93,28.1,47.93c0,0,28.11-32.41,28.11-47.93s-12.58-28.11-28.11-28.11ZM408.26,130.32l-2.34,25.95-2.33-25.95c-5.3-1.08-9.28-5.76-9.28-11.38,0-6.41,5.2-11.62,11.61-11.62s11.62,5.21,11.62,11.62c0,5.62-3.98,10.3-9.28,11.38Z"/>
  <path class="cls-1" d="M359.89,123.94c-12.3-20.37-34.36-32.83-58.16-32.83h-.28v138.99c16.75,0,30.28-13.62,30.19-30.35l39.84.12c5.99,8.98,13.95,16.27,23.1,21.45,10.04,5.66,21.5,8.78,33.42,8.78v-.67l-68.11-105.49ZM331.38,169.87l-.32-35.64,21.8,35.45-21.48.19Z"/>
  <polygon class="cls-3" points="428 228.55 428 229.43 428.44 230.1 428 228.55"/>
</svg>